<svg xmlns="http://www.w3.org/2000/svg" viewBox="0 0 1000 550"><defs><style>.cls-1{fill:none;}</style></defs><title>MTNI-Black EN</title><g id="Layer_2" data-name="Layer 2"><g id="Layer_1-2" data-name="Layer 1"><path d="M830.55,103.67C741.93,61.35,624.54,38,500,38S258,61.35,169.43,103.67C76.29,148.16,25,209,25,275S76.29,401.84,169.43,446.33C258,488.65,375.43,512,500,512s241.94-23.31,330.56-65.63C923.7,401.84,975,341,975,275S923.7,148.16,830.55,103.67ZM813.91,411.5c-83.53,39.89-195,61.86-313.92,61.86s-230.41-22-313.92-61.86C108.24,374.32,63.6,324.57,63.6,275s44.64-99.32,122.47-136.5c83.52-39.89,195-61.86,313.92-61.86s230.39,22,313.92,61.86C891.75,175.68,936.4,225.43,936.4,275S891.75,374.32,813.91,411.5Z"/><polygon points="411.31 395.89 387.27 363.24 366.26 363.24 366.26 446.5 387.14 446.5 387.14 399.81 403.84 422.33 415.74 422.33 430.92 399.81 430.92 446.5 453.69 446.5 453.69 363.24 432.82 363.24 411.31 395.89"/><polygon points="465.33 382.1 492.66 382.1 492.66 446.5 515.82 446.5 515.82 382.1 543.02 382.1 543.02 363.24 465.33 363.24 465.33 382.1"/><polygon points="612.86 409.17 575.41 363.24 554.66 363.24 554.66 446.5 575.53 446.5 575.53 398.92 614.63 446.5 633.74 446.5 633.74 363.24 612.86 363.24 612.86 409.17"/><path d="M182.13,176.34h32.05V291.55H182.13Z"/><path d="M294.37,204.18c1.4,0,3,.09,4.9.26a29.27,29.27,0,0,1,5.25,1v29.76A39.86,39.86,0,0,0,298,233.6a40.84,40.84,0,0,0-6.39-.53q-8.4,0-13.74,3.06a25.27,25.27,0,0,0-8.67,8.15v47.27h-31V210.13L267.93,204v18.2A38.06,38.06,0,0,1,280,208.73,26.07,26.07,0,0,1,294.37,204.18Z"/><path d="M406.42,204v87.54H376.65V280.87q-10.5,13.65-26.79,13.66a36.14,36.14,0,0,1-14.79-3.07,37.7,37.7,0,0,1-12.17-8.58,39.77,39.77,0,0,1-8.23-13.13,45.65,45.65,0,0,1-3-16.72,47,47,0,0,1,4.11-19.7A49.44,49.44,0,0,1,343,207.51a51.66,51.66,0,0,1,19.35-3.68,70.31,70.31,0,0,1,13.39,1.31,101.82,101.82,0,0,1,12.52,3.24Zm-44.65,65.83a23.61,23.61,0,0,0,7-1.14,14.34,14.34,0,0,0,6.66-4.64V230.44a25.33,25.33,0,0,0-6.48-2.53,27.15,27.15,0,0,0-6.3-.79,22.32,22.32,0,0,0-7.1,1.14,15.84,15.84,0,0,0-6,3.67,18.14,18.14,0,0,0-4.2,6.57,27,27,0,0,0-1.57,9.8q0,10,4.72,15.76T361.77,269.84Z"/><path d="M486.61,204.18a34.31,34.31,0,0,1,12.52,2.28,26.85,26.85,0,0,1,10.15,6.91A33.16,33.16,0,0,1,516,224.84a46.41,46.41,0,0,1,2.45,15.76v51H487.66V250.4q0-9.79-3.24-15.14t-10.24-5.34a18.37,18.37,0,0,0-8.93,2.19,26.69,26.69,0,0,0-7.18,5.69v53.75h-31V210.13L456.84,204v13a36.3,36.3,0,0,1,13.48-9.54A42.46,42.46,0,0,1,486.61,204.18Z"/><path d="M579.58,295.4a54.4,54.4,0,0,1-19.18-3.24,44.31,44.31,0,0,1-14.88-9A39,39,0,0,1,536,269.31a45.79,45.79,0,0,1-3.33-17.68,47.08,47.08,0,0,1,14.62-34.76A48,48,0,0,1,563,207a53.06,53.06,0,0,1,19.35-3.5,67.8,67.8,0,0,1,14.53,1.75A80.39,80.39,0,0,1,611.62,210v26.26a45.41,45.41,0,0,0-12.08-6,41.38,41.38,0,0,0-13-2.19q-10,0-16.11,5.52t-6.13,14.62q0,10,5.69,15.67t16,5.69a38.56,38.56,0,0,0,11.12-1.84,51.6,51.6,0,0,0,11.12-4.82L619.5,280A53.43,53.43,0,0,1,601,291.37,60.69,60.69,0,0,1,579.58,295.4Z"/><path d="M719.3,280.17A71.23,71.23,0,0,1,701,290.85a70.84,70.84,0,0,1-45.87,1.4,46.85,46.85,0,0,1-16-8.93,39.91,39.91,0,0,1-10.33-13.92,43.57,43.57,0,0,1-3.68-18.12A46.41,46.41,0,0,1,629,232.37a45.87,45.87,0,0,1,10.68-15.15,50.63,50.63,0,0,1,16.11-10.06,54.19,54.19,0,0,1,20.14-3.68,50.81,50.81,0,0,1,17.24,2.8,38.92,38.92,0,0,1,13.31,7.88A35.88,35.88,0,0,1,715,226.24a38.54,38.54,0,0,1,3.06,15.58,47.62,47.62,0,0,1-.79,9,29.35,29.35,0,0,1-2.19,7.09h-58.3a20.51,20.51,0,0,0,9.37,10.25q6.55,3.58,16.72,3.58a47.85,47.85,0,0,0,13.74-2,84,84,0,0,0,12.52-4.81Zm-43.6-55.68a24,24,0,0,0-11.47,3.06,17.43,17.43,0,0,0-8.14,10.07h35.19a15.3,15.3,0,0,0-4.9-9.54Q682.35,224.5,675.7,224.49Z"/><path d="M734.7,173.54l31-6.3V291.55h-31Z"/><path d="M786.87,173.54l31-6.3V291.55h-31Z"/><rect class="cls-1" width="1000" height="550"/></g></g></svg>